<?xml version="1.0" encoding="UTF-8" standalone="no"?><!DOCTYPE svg PUBLIC "-//W3C//DTD SVG 1.1//EN" "http://www.w3.org/Graphics/SVG/1.1/DTD/svg11.dtd"><svg width="100%" height="100%" viewBox="0 0 1229 1183" version="1.1" xmlns="http://www.w3.org/2000/svg" xmlns:xlink="http://www.w3.org/1999/xlink" xml:space="preserve" xmlns:serif="http://www.serif.com/" style="fill-rule:evenodd;clip-rule:evenodd;stroke-linejoin:round;stroke-miterlimit:2;"><rect id="Artboard1" x="0" y="0" width="1228.8" height="1182.82" style="fill:none;"/><path d="M614.305,864.463c-3.999,12.913 -134.095,424.884 -380.087,176.017c-196.43,-198.725 1.004,-293.623 132.245,-331.494c-170.515,-4.053 -399.296,22.577 -337.02,-577.259c21.068,-202.925 420.739,72.351 584.957,418.499l0.965,-2.028c164.85,-345.219 562.966,-618.99 583.992,-416.471c62.276,599.836 -166.505,573.206 -337.02,577.259c131.241,37.871 328.675,132.769 132.245,331.494c-249.89,252.81 -380.182,-176.327 -380.182,-176.327l-0.095,0.31Z" style="fill:#fff;"/></svg>