<?xml version="1.0" encoding="UTF-8" standalone="no"?><!DOCTYPE svg PUBLIC "-//W3C//DTD SVG 1.1//EN" "http://www.w3.org/Graphics/SVG/1.1/DTD/svg11.dtd"><svg width="100%" height="100%" viewBox="0 0 3334 3334" version="1.1" xmlns="http://www.w3.org/2000/svg" xmlns:xlink="http://www.w3.org/1999/xlink" xml:space="preserve" xmlns:serif="http://www.serif.com/" style="fill-rule:evenodd;clip-rule:evenodd;stroke-linejoin:round;stroke-miterlimit:2;"><path d="M2781.11,2218.86c-0,310.052 -252.196,562.248 -562.248,562.248l-1104.38,-0c-310.052,-0 -562.248,-252.196 -562.248,-562.248l-0,-1104.38c-0,-310.052 252.196,-562.248 562.248,-562.248l1104.38,-0c310.052,-0 562.248,252.196 562.248,562.248l-0,1104.38Zm-1118.75,-883.61c-180.746,2.294 -327.207,150.097 -327.207,331.382c0,182.784 148.773,331.556 331.483,331.556c182.784,0 331.483,-148.772 331.483,-331.556c-0,-181.998 -147.542,-330.249 -329.342,-331.403l-2.141,-0.007c-0.712,0 -1.425,0.003 -2.139,0.007l-2.137,0.021Zm0.57,905.468c-314.787,-1.998 -570.318,-258.759 -570.318,-574.086c0,-316.488 257.536,-574.024 574.024,-574.024l3.707,0.012l3.702,0.035c313.155,3.974 566.688,259.957 566.688,573.977c0,315.327 -255.53,572.088 -570.39,574.086l-3.707,0.011l-3.706,-0.011Zm594.482,-1029.41c-74.092,-0.941 -134.073,-61.501 -134.073,-135.815c0,-74.899 60.928,-135.826 135.826,-135.826l1.753,0.011l1.748,0.033c73.284,1.86 132.325,62.052 132.325,135.782c0,74.314 -59.981,134.874 -134.073,135.815l-1.753,0.011l-1.753,-0.011Zm-34.423,1327.23c174.377,-2.213 315.582,-144.781 315.582,-319.68l-0,-1104.38c-0,-176.274 -143.433,-319.707 -319.707,-319.707l-1104.38,-0c-0.688,-0 -1.375,0.002 -2.065,0.006l-2.061,0.02c-174.377,2.213 -315.581,144.782 -315.581,319.681l-0,1104.38c-0,176.274 143.433,319.707 319.707,319.707l1104.38,-0l2.064,-0.007l2.061,-0.02Z" style="fill:#fff;"/></svg>